<mxfile host="app.diagrams.net" modified="2021-10-12T12:24:27.817Z" agent="5.0 (Windows NT 10.0; Win64; x64) AppleWebKit/537.36 (KHTML, like Gecko) Chrome/94.0.4606.71 Safari/537.36 Edg/94.0.992.38" etag="WKOIE0796fMacbTBI28l" version="15.3.8" type="github">
  <diagram id="zilzJl96QCMMg5tGJzkm" name="Page-1">
    <mxGraphModel dx="1038" dy="578" grid="1" gridSize="10" guides="1" tooltips="1" connect="1" arrows="1" fold="1" page="1" pageScale="1" pageWidth="827" pageHeight="1169" math="0" shadow="0">
      <root>
        <mxCell id="0" />
        <mxCell id="1" parent="0" />
        <mxCell id="mpSO8kdvRYwk7wcLRRey-8" style="edgeStyle=orthogonalEdgeStyle;rounded=0;orthogonalLoop=1;jettySize=auto;html=1;entryX=0;entryY=0.5;entryDx=0;entryDy=0;" parent="1" source="mpSO8kdvRYwk7wcLRRey-3" target="mpSO8kdvRYwk7wcLRRey-5" edge="1">
          <mxGeometry relative="1" as="geometry" />
        </mxCell>
        <mxCell id="mpSO8kdvRYwk7wcLRRey-3" value="benevole" style="shape=umlActor;verticalLabelPosition=bottom;verticalAlign=top;html=1;" parent="1" vertex="1">
          <mxGeometry x="460" y="70" width="30" height="60" as="geometry" />
        </mxCell>
        <mxCell id="mpSO8kdvRYwk7wcLRRey-5" value="renseigne dispo" style="ellipse;whiteSpace=wrap;html=1;" parent="1" vertex="1">
          <mxGeometry x="610" y="70" width="140" height="70" as="geometry" />
        </mxCell>
        <mxCell id="mpSO8kdvRYwk7wcLRRey-10" value="modifier info benevoles" style="ellipse;whiteSpace=wrap;html=1;" parent="1" vertex="1">
          <mxGeometry x="440" y="215" width="140" height="70" as="geometry" />
        </mxCell>
        <mxCell id="OPiPzonsdsgegJGFYfHE-1" style="edgeStyle=orthogonalEdgeStyle;rounded=0;orthogonalLoop=1;jettySize=auto;html=1;entryX=0;entryY=0.5;entryDx=0;entryDy=0;" edge="1" parent="1" source="mpSO8kdvRYwk7wcLRRey-11" target="mpSO8kdvRYwk7wcLRRey-10">
          <mxGeometry relative="1" as="geometry" />
        </mxCell>
        <mxCell id="OPiPzonsdsgegJGFYfHE-3" style="edgeStyle=orthogonalEdgeStyle;rounded=0;orthogonalLoop=1;jettySize=auto;html=1;" edge="1" parent="1" source="mpSO8kdvRYwk7wcLRRey-11" target="OPiPzonsdsgegJGFYfHE-2">
          <mxGeometry relative="1" as="geometry">
            <Array as="points">
              <mxPoint x="410" y="250" />
              <mxPoint x="410" y="375" />
            </Array>
          </mxGeometry>
        </mxCell>
        <mxCell id="OPiPzonsdsgegJGFYfHE-7" style="edgeStyle=orthogonalEdgeStyle;rounded=0;orthogonalLoop=1;jettySize=auto;html=1;entryX=0;entryY=0.5;entryDx=0;entryDy=0;" edge="1" parent="1" source="mpSO8kdvRYwk7wcLRRey-11" target="OPiPzonsdsgegJGFYfHE-4">
          <mxGeometry relative="1" as="geometry" />
        </mxCell>
        <mxCell id="mpSO8kdvRYwk7wcLRRey-11" value="gestionnaire&lt;br&gt;" style="shape=umlActor;verticalLabelPosition=bottom;verticalAlign=top;html=1;outlineConnect=0;" parent="1" vertex="1">
          <mxGeometry x="320" y="220" width="30" height="60" as="geometry" />
        </mxCell>
        <mxCell id="OPiPzonsdsgegJGFYfHE-2" value="renseigner evenement&lt;br&gt;" style="ellipse;whiteSpace=wrap;html=1;" vertex="1" parent="1">
          <mxGeometry x="460" y="340" width="140" height="70" as="geometry" />
        </mxCell>
        <mxCell id="OPiPzonsdsgegJGFYfHE-4" value="gerer postes&lt;br&gt;" style="ellipse;whiteSpace=wrap;html=1;" vertex="1" parent="1">
          <mxGeometry x="470" y="470" width="140" height="70" as="geometry" />
        </mxCell>
        <mxCell id="OPiPzonsdsgegJGFYfHE-10" value="authentfie" style="ellipse;whiteSpace=wrap;html=1;" vertex="1" parent="1">
          <mxGeometry x="180" y="120" width="140" height="70" as="geometry" />
        </mxCell>
        <mxCell id="OPiPzonsdsgegJGFYfHE-11" value="includes" style="endArrow=open;endSize=12;dashed=1;html=1;entryX=0.951;entryY=0.731;entryDx=0;entryDy=0;entryPerimeter=0;" edge="1" parent="1" source="mpSO8kdvRYwk7wcLRRey-10" target="OPiPzonsdsgegJGFYfHE-10">
          <mxGeometry width="160" relative="1" as="geometry">
            <mxPoint x="580" y="250" as="sourcePoint" />
            <mxPoint x="740" y="250" as="targetPoint" />
          </mxGeometry>
        </mxCell>
        <mxCell id="OPiPzonsdsgegJGFYfHE-12" value="includes" style="endArrow=open;endSize=12;dashed=1;html=1;entryX=0.5;entryY=1;entryDx=0;entryDy=0;" edge="1" parent="1" target="OPiPzonsdsgegJGFYfHE-10">
          <mxGeometry width="160" relative="1" as="geometry">
            <mxPoint x="470.0003046306481" y="357.03389674076817" as="sourcePoint" />
            <mxPoint x="327.90999999999985" y="299.99999999999994" as="targetPoint" />
            <Array as="points">
              <mxPoint x="250" y="330" />
            </Array>
          </mxGeometry>
        </mxCell>
        <mxCell id="OPiPzonsdsgegJGFYfHE-13" value="includes" style="endArrow=open;endSize=12;dashed=1;html=1;entryX=0.717;entryY=0.063;entryDx=0;entryDy=0;entryPerimeter=0;" edge="1" parent="1" target="OPiPzonsdsgegJGFYfHE-10">
          <mxGeometry width="160" relative="1" as="geometry">
            <mxPoint x="632.0903046306481" y="77.0338967407682" as="sourcePoint" />
            <mxPoint x="489.9999999999999" y="19.99999999999997" as="targetPoint" />
            <Array as="points">
              <mxPoint x="430" y="30" />
            </Array>
          </mxGeometry>
        </mxCell>
        <mxCell id="OPiPzonsdsgegJGFYfHE-14" value="includes" style="endArrow=open;endSize=12;dashed=1;html=1;entryX=0.226;entryY=0.983;entryDx=0;entryDy=0;entryPerimeter=0;" edge="1" parent="1" target="OPiPzonsdsgegJGFYfHE-10">
          <mxGeometry width="160" relative="1" as="geometry">
            <mxPoint x="470.0003046306481" y="497.0338967407682" as="sourcePoint" />
            <mxPoint x="327.90999999999985" y="440" as="targetPoint" />
            <Array as="points">
              <mxPoint x="130" y="400" />
            </Array>
          </mxGeometry>
        </mxCell>
      </root>
    </mxGraphModel>
  </diagram>
</mxfile>
